<?xml version="1.0" encoding="UTF-8" standalone="no"?>
<!DOCTYPE svg PUBLIC "-//W3C//DTD SVG 1.1//EN"
 "http://www.w3.org/Graphics/SVG/1.1/DTD/svg11.dtd">
<!-- Generated by graphviz version 8.0.5 (20230430.1635)
 -->
<!-- Pages: 1 -->
<svg width="202pt" height="220pt"
 viewBox="0.00 0.00 202.09 219.50" xmlns="http://www.w3.org/2000/svg" xmlns:xlink="http://www.w3.org/1999/xlink">
<g id="graph0" class="graph" transform="scale(1 1) rotate(0) translate(4 215.5)">
<polygon fill="white" stroke="none" points="-4,4 -4,-215.5 198.09,-215.5 198.09,4 -4,4"/>
<!-- Node A -->
<g id="node1" class="node">
<title>Node A</title>
<ellipse fill="none" stroke="black" cx="88.59" cy="-105.75" rx="40.09" ry="18"/>
<text text-anchor="middle" x="88.59" y="-100.33" font-family="Times New Roman,serif" font-size="14.00">Node A</text>
</g>
<!-- Node B -->
<g id="node2" class="node">
<title>Node B</title>
<ellipse fill="none" stroke="black" cx="39.59" cy="-18" rx="39.59" ry="18"/>
<text text-anchor="middle" x="39.59" y="-12.57" font-family="Times New Roman,serif" font-size="14.00">Node B</text>
</g>
<!-- Node A&#45;&gt;Node B -->
<g id="edge2" class="edge">
<title>Node A&#45;&gt;Node B</title>
<path fill="none" stroke="black" d="M65.47,-90.96C58,-85.33 50.47,-78.15 45.84,-69.75 42.09,-62.96 40.18,-54.89 39.28,-47.22"/>
<polygon fill="black" stroke="black" points="42.72,-47.19 38.59,-37.43 35.73,-47.64 42.72,-47.19"/>
<text text-anchor="middle" x="81.46" y="-56.45" font-family="Times New Roman,serif" font-size="14.00">Edge A to B</text>
</g>
<!-- Node C -->
<g id="node3" class="node">
<title>Node C</title>
<ellipse fill="none" stroke="black" cx="137.59" cy="-18" rx="40.09" ry="18"/>
<text text-anchor="middle" x="137.59" y="-12.57" font-family="Times New Roman,serif" font-size="14.00">Node C</text>
</g>
<!-- Node A&#45;&gt;Node C -->
<g id="edge3" class="edge">
<title>Node A&#45;&gt;Node C</title>
<path fill="none" stroke="black" d="M102.38,-88.61C106.91,-82.87 111.77,-76.23 115.59,-69.75 119.95,-62.36 123.95,-53.94 127.3,-46.12"/>
<polygon fill="black" stroke="black" points="130.91,-47.55 131.46,-36.97 124.43,-44.9 130.91,-47.55"/>
<text text-anchor="middle" x="158.84" y="-56.45" font-family="Times New Roman,serif" font-size="14.00">Edge A to C</text>
</g>
<!-- root -->
<g id="node4" class="node">
<title>root</title>
<ellipse fill="none" stroke="black" cx="88.59" cy="-193.5" rx="52.56" ry="18"/>
<text text-anchor="middle" x="88.59" y="-188.07" font-family="Times New Roman,serif" font-size="14.00">Root Node</text>
</g>
<!-- root&#45;&gt;Node A -->
<g id="edge1" class="edge">
<title>root&#45;&gt;Node A</title>
<path fill="none" stroke="black" d="M88.59,-175.15C88.59,-163.64 88.59,-148.28 88.59,-135.03"/>
<polygon fill="black" stroke="black" points="92.09,-135.08 88.59,-125.08 85.09,-135.08 92.09,-135.08"/>
<text text-anchor="middle" x="118.96" y="-144.2" font-family="Times New Roman,serif" font-size="14.00">Root Edge</text>
</g>
</g>
</svg>
